<svg id="Capa_1" data-name="Capa 1" xmlns="http://www.w3.org/2000/svg" viewBox="0 0 583 121"><defs><style>.cls-1{fill:#8bb124;}.cls-1,.cls-2,.cls-3,.cls-4,.cls-5,.cls-6{fill-rule:evenodd;}.cls-2{fill:#6cb535;}.cls-3{fill:#007d78;}.cls-4{fill:#008ed0;}.cls-5{fill:#ed6b06;}.cls-6{fill:#b5c00e;}</style></defs><title>logoSenova</title><path class="cls-1" d="M235.26,21V103.9H208.62L185,58.44c-1.17-2.28-3-6.23-5.52-11.91l-2.68-5.94-2.6-5.94h-.61l.23,5.46.19,5.4.13,10.86V103.9H158.36V21H185l21.55,42c1.9,3.72,4.12,8.23,6.62,13.54l3.15,6.73,3.17,6.8H220l-.18-5.34-.18-5.35-.13-10.67V21Z"/><path class="cls-1" d="M326.72,21V103.9H300.08L276.42,58.44c-1.19-2.28-3-6.23-5.53-11.91l-2.66-5.94-2.62-5.94H265l.25,5.46.18,5.4.12,10.86V103.9H249.82V21h26.66l21.55,42c1.9,3.72,4.09,8.23,6.61,13.54l3.15,6.73,3.16,6.8h.55l-.2-5.34-.16-5.35L311,68.76V21Z"/><path class="cls-1" d="M475,21h16.63L464.87,103.9H440.71L414.25,21h16.33L446.12,68q2.17,6.74,6.49,22.58H453l1.56-5.65c1.95-7,3.61-12.65,5-16.87Z"/><path class="cls-1" d="M548.57,88H512.82l-5.16,15.91H491L518.57,21h23.62l28,82.86H553.85Zm-3.65-11.6L530.61,33.25,516.53,76.39Z"/><path class="cls-2" d="M415.8,37.9a35.7,35.7,0,0,1,4.8,7.8c6.75,22.92.21,41.32-7.51,50.28a49.71,49.71,0,0,1-13.51,11.64,55.52,55.52,0,0,1-50.49,2,47.52,47.52,0,0,1-15.15-10.88l-.44,2.32-1.69-7.26L336,93.1l-.7,1.93c2.76,2.62,7.16,4.89,11,6.47,9.61,4.52,21.26,7.34,33.23,5.85a49.39,49.39,0,0,0,16.63-5.08,50.75,50.75,0,0,0,13-9.87c7.28-7.63,14.15-25.21,10.49-44-1.33-4.53-3.89-10.46-3.89-10.46"/><path class="cls-3" d="M350.31,23.67l-3-.89,2.29-4.17.24,1.06s1.79-.87,2.74-1.3a66.49,66.49,0,0,1,34.68-5.14,47.22,47.22,0,0,1,20.14,7.21,34.06,34.06,0,0,1,13.74,18A42.16,42.16,0,0,1,422,60.14C420.54,67,418.11,74,414.61,79.41c-7,10.83-20.58,28.91-58.58,24.21C389.2,106.54,403.25,88,409.2,77.73s9.8-25,5.8-37.6a29,29,0,0,0-11.18-15,42.64,42.64,0,0,0-17.36-6.82,66.12,66.12,0,0,0-32.6,2.89c-1.29.44-3.72,1.42-3.72,1.42Z"/><path class="cls-3" d="M393.89,77.54c-8.6,6.87-23.46,10.54-38.7,4.26-5.91-2.83-9.73-5.67-13.09-11.62a22.26,22.26,0,0,1-1.16-20.46c3.63-8.53,11-15.59,24.57-19,13-3.07,29.37.95,32,16,3,17.27-11.49,24.32-15.37,26.16.08,0,.87.79.87.79l-3.72-.21.64-2.53s.8.69,1,.83c2.12-1.37,15-9.25,11.95-24.21-3.08-15.13-35.2-17.61-46.24,4A18.52,18.52,0,0,0,347,68.3c2.66,5.2,5.4,7.6,10.49,10.38,9.62,4.38,23.72,5.87,36.44-1.14"/><path class="cls-4" d="M332.89,75.74A33.62,33.62,0,0,1,330.2,71a28.53,28.53,0,0,1-2.63-15.19c.61-6.77,2.82-13.81,10.41-21.93,12.76-13.3,31.89-14.47,34.11-14.44,23.77,0,30.29,15.72,31.14,19a37.4,37.4,0,0,1,.82,4.65,3.81,3.81,0,0,1,1.4-.88L403.12,48l-3-2.63s.86-.5,1.77-.92a32.06,32.06,0,0,0-1.44-4.95,18.54,18.54,0,0,0-7.51-8.6c-2.05-1.28-10.7-7.91-31.16-3.61-6,1.67-13.32,3.79-20.49,10.88a35.87,35.87,0,0,0-10.82,18.18,29,29,0,0,0,.58,14.3,41.87,41.87,0,0,0,1.85,5.1"/><path class="cls-5" d="M327.79,45.48c-14.48,18.58.42,41.2,26.71,47.61,28.49,5.57,37.73-6.81,41.91-10.63a19.33,19.33,0,0,0,3.12-3.5,10.35,10.35,0,0,0-.88-1l3-.44,0,4.53s-.1-.21-.58-1a21.49,21.49,0,0,1-2.43,3.38c-4.08,4.8-16.76,19.73-45.89,14.37C329.8,93,304.87,70.56,327.79,45.48"/><path class="cls-2" d="M365.3,38.71l.23,4.32-3.42-.87s.47-.52.77-.8c-3.35-3.84-8.49-8.37-15-10.5a15.19,15.19,0,0,0-9.25-.35,11.62,11.62,0,0,0-6.35,5.31c-7.43,13.17,1.44,38.5,12.15,46.45-10.71-6.08-21.3-23.58-20.34-39.65a20.67,20.67,0,0,1,2.7-9.55,14.58,14.58,0,0,1,8.77-6.77c4.12-1.2,9.21-.58,13.34,1a33.29,33.29,0,0,1,10.2,6.27,36.31,36.31,0,0,1,5.44,5.91,5.19,5.19,0,0,0,.73-.81"/><path class="cls-5" d="M427.75,59.59a37.87,37.87,0,0,0-.54-5.31c-.6-3.26-2-8.37-6.4-12.18s-12.16-4.76-20.15-3.75a83.57,83.57,0,0,0-24.81,7.95,42,42,0,0,0-5.74,3.36A54.18,54.18,0,0,0,365,53.75a51.24,51.24,0,0,0-8.1,9.27c-4.43,6.46-6.8,13.34-7,19.18a20.17,20.17,0,0,0,.31,4.87c1.07.13,1.71.18,1.71.18l-2.21,2.19L346,86.61s.75.13,1.65.25a26.59,26.59,0,0,1-.84-4.58c-.58-6.53,1.26-14.41,5.65-21.88a50.85,50.85,0,0,1,8.43-10.74,54.84,54.84,0,0,1,5.57-4.73A45.87,45.87,0,0,1,373,41a74.32,74.32,0,0,1,27.14-7.65,45,45,0,0,1,13,1.21A18.49,18.49,0,0,1,423,40a18.76,18.76,0,0,1,4.31,7.8,23.8,23.8,0,0,1,.88,6.42,30.52,30.52,0,0,1-.42,5.38"/><path class="cls-4" d="M362.37,68l3-8.15,7.31,3.81-3.06,1.41s1.63,3.33,2.6,5a41.05,41.05,0,0,0,11.73,13.39c6.81,4.72,14.82,7.3,21.93,7.26s13.25-3.31,16.28-7.8A21.32,21.32,0,0,0,426,70.53a26.74,26.74,0,0,0-.49-5,24.19,24.19,0,0,1,1.34,4.93,21.78,21.78,0,0,1-2.43,13.93,20.13,20.13,0,0,1-7.07,7.41,25.15,25.15,0,0,1-11.34,3.54c-8.35.58-17.45-2-25.32-7.4A38,38,0,0,1,371.11,78a57.4,57.4,0,0,1-3.2-5.3c-1-1.95-2.61-5.89-2.61-5.89Z"/><path class="cls-6" d="M376.53,65.48,376,59l4.8.34-1.17,1.82a2.57,2.57,0,0,0,.21.19,38.63,38.63,0,0,0,3.84,3.14,20,20,0,0,0,4.9,2.53,16,16,0,0,0,5.7.72,13.77,13.77,0,0,0,10.53-5.43,20.62,20.62,0,0,0,3.15-6,15.48,15.48,0,0,0,.83-3.28,23,23,0,0,0,.14-3.55A36,36,0,0,0,405,34.62c-4.72-9.68-13.55-16.12-22.71-19A52.67,52.67,0,0,0,369.71,13a58.74,58.74,0,0,0-7.19-.17,47.29,47.29,0,0,0-5.74.76C342.34,15.77,333,26,333.05,25.83c0,.19,4.69-9.63,22-15.2a55.22,55.22,0,0,1,7.07-1.58,56,56,0,0,1,7.79-.56,52.1,52.1,0,0,1,14,2,44.37,44.37,0,0,1,15.29,7.3,40.48,40.48,0,0,1,15.95,31.64,26.62,26.62,0,0,1-.39,4.52,21.28,21.28,0,0,1-1.27,4.37,25,25,0,0,1-4.45,7.4,19,19,0,0,1-6.87,5,18.6,18.6,0,0,1-7.85,1.37,19.19,19.19,0,0,1-7.13-1.56A22.08,22.08,0,0,1,381.72,67a39.89,39.89,0,0,1-3.13-3.09l-.49-.61Z"/><path class="cls-1" d="M78.3,45.2H63c-.07-.76-.12-1.34-.12-1.7-.38-4.65-1.39-7.57-3.1-8.77s-5.7-1.79-12-1.79c-7.45,0-12.33.7-14.6,2.07s-3.44,4.26-3.44,8.67c0,5.23.95,8.36,2.8,9.42s8,1.85,18.45,2.42q18.52,1,23.95,5.28t5.43,17.67q0,16.5-6.38,21.32t-28.1,4.83q-19.55,0-25.95-4.73t-6.4-19.18l-.06-3H28.73l.05,1.76q0,8.68,3,10.62t16.56,2q10.56,0,13.48-2.25c1.93-1.49,2.92-5,2.92-10.38,0-4-.75-6.67-2.22-8S57.89,69.28,53,69l-8.69-.55Q24.64,67.3,19.19,63c-3.64-2.87-5.46-9.06-5.46-18.53q0-14.51,6.58-19.33t26.32-4.82q18.69,0,25.17,4.43t6.5,17.3Z"/><polygon class="cls-1" points="105.31 34.28 105.31 55.65 144.16 55.65 144.16 67.24 105.31 67.24 105.31 90.66 146.65 90.66 146.65 103.9 89.59 103.9 89.59 21.04 146.28 21.04 146.28 34.28 105.31 34.28"/></svg>